<?xml version="1.0" encoding="UTF-8"?>
<svg id="Livello_1" xmlns="http://www.w3.org/2000/svg" version="1.1" viewBox="0 0 783.44 104.36">
  <!-- Generator: Adobe Illustrator 29.2.0, SVG Export Plug-In . SVG Version: 2.1.0 Build 108)  -->
  <g>
    <path d="M16.75,7.71v95.48H5.01V7.71h11.74Z" fill="#3da1fb"/>
    <path d="M99.45,32.49v70.71h-11.74v-10.45c-2.24,3.61-5.35,6.43-9.35,8.45-4,2.02-8.41,3.03-13.23,3.03-5.51,0-10.45-1.14-14.84-3.42s-7.85-5.7-10.39-10.26c-2.54-4.56-3.81-10.11-3.81-16.65v-41.42h11.61v39.87c0,6.97,1.76,12.32,5.29,16.06s8.34,5.61,14.45,5.61,11.23-1.94,14.84-5.81c3.61-3.87,5.42-9.5,5.42-16.9v-38.84h11.74v.02Z" fill="#3da1fb"/>
    <path d="M119.32,48.55c2.92-5.46,6.99-9.7,12.19-12.71,5.2-3.01,11.16-4.52,17.87-4.52,8.69,0,15.85,2.11,21.48,6.32,5.63,4.22,9.36,10.06,11.16,17.55h-12.65c-1.21-4.3-3.55-7.7-7.03-10.19-3.48-2.49-7.81-3.74-12.97-3.74-6.71,0-12.13,2.3-16.26,6.9-4.13,4.6-6.19,11.12-6.19,19.55s2.06,15.1,6.19,19.74,9.55,6.97,16.26,6.97c5.16,0,9.46-1.2,12.9-3.61,3.44-2.41,5.81-5.85,7.1-10.32h12.65c-1.89,7.23-5.68,13.01-11.36,17.35-5.68,4.34-12.77,6.52-21.29,6.52-6.71,0-12.67-1.5-17.87-4.52-5.21-3.01-9.27-7.27-12.19-12.77-2.93-5.5-4.39-11.96-4.39-19.35s1.46-13.7,4.39-19.16h0Z" fill="#3da1fb"/>
    <path d="M198.03,18.68c-1.55-1.55-2.32-3.44-2.32-5.68s.77-4.13,2.32-5.68,3.44-2.32,5.68-2.32,3.98.77,5.48,2.32,2.26,3.44,2.26,5.68-.75,4.13-2.26,5.68-3.33,2.32-5.48,2.32-4.13-.77-5.68-2.32ZM209.39,32.49v70.71h-11.74V32.49h11.74Z" fill="#3da1fb"/>
    <path d="M229.38,48.55c2.92-5.46,6.95-9.7,12.06-12.71,5.12-3.01,10.82-4.52,17.1-4.52s11.57,1.33,16.13,4c4.56,2.67,7.96,6.02,10.19,10.06v-12.9h11.87v70.71h-11.87v-13.16c-2.32,4.13-5.79,7.55-10.39,10.26s-9.96,4.06-16.06,4.06-11.96-1.55-17.03-4.64c-5.08-3.1-9.08-7.44-12-13.03s-4.39-11.96-4.39-19.1,1.46-13.57,4.39-19.03ZM281.64,53.78c-2.15-3.96-5.05-6.99-8.71-9.1s-7.68-3.16-12.06-3.16-8.39,1.03-12,3.1-6.5,5.08-8.65,9.03c-2.15,3.96-3.23,8.6-3.23,13.94s1.07,10.13,3.23,14.13c2.15,4,5.03,7.06,8.65,9.16,3.61,2.11,7.61,3.16,12,3.16s8.41-1.05,12.06-3.16,6.56-5.16,8.71-9.16,3.23-8.67,3.23-14-1.08-9.98-3.23-13.94Z" fill="#3da1fb"/>
    <path d="M325.38,93.52h34.71v9.68h-48.13v-9.68l34.32-51.48h-34.06v-9.55h47.61v9.55s-34.45,51.48-34.45,51.48Z" fill="#3da1fb"/>
    <path d="M375.32,48.55c2.92-5.46,6.95-9.7,12.06-12.71,5.12-3.01,10.82-4.52,17.1-4.52s11.57,1.33,16.13,4c4.56,2.67,7.96,6.02,10.19,10.06v-12.9h11.87v70.71h-11.87v-13.16c-2.32,4.13-5.79,7.55-10.39,10.26s-9.96,4.06-16.06,4.06-11.96-1.55-17.03-4.64c-5.08-3.1-9.08-7.44-12-13.03s-4.39-11.96-4.39-19.1,1.46-13.57,4.39-19.03ZM427.57,53.78c-2.15-3.96-5.05-6.99-8.71-9.1s-7.68-3.16-12.06-3.16-8.39,1.03-12,3.1-6.5,5.08-8.65,9.03c-2.15,3.96-3.23,8.6-3.23,13.94s1.07,10.13,3.23,14.13c2.15,4,5.03,7.06,8.65,9.16,3.61,2.11,7.61,3.16,12,3.16s8.41-1.05,12.06-3.16,6.56-5.16,8.71-9.16,3.23-8.67,3.23-14-1.08-9.98-3.23-13.94Z" fill="#3da1fb"/>
    <path d="M488.86,92.36l21.94-59.87h12.52l-27.74,70.71h-13.68l-27.74-70.71h12.64l22.06,59.87h0Z" fill="#3da1fb"/>
    <path d="M534.93,48.55c2.92-5.46,6.95-9.7,12.06-12.71,5.12-3.01,10.82-4.52,17.1-4.52s11.57,1.33,16.13,4c4.56,2.67,7.96,6.02,10.19,10.06v-12.9h11.87v70.71h-11.87v-13.16c-2.32,4.13-5.79,7.55-10.39,10.26-4.6,2.71-9.96,4.06-16.06,4.06s-11.96-1.55-17.03-4.64c-5.08-3.1-9.08-7.44-12-13.03s-4.39-11.96-4.39-19.1,1.46-13.57,4.39-19.03h0ZM587.18,53.78c-2.15-3.96-5.05-6.99-8.71-9.1-3.66-2.11-7.68-3.16-12.06-3.16s-8.39,1.03-12,3.1-6.5,5.08-8.64,9.03c-2.15,3.96-3.23,8.6-3.23,13.94s1.08,10.13,3.23,14.13c2.15,4,5.03,7.06,8.64,9.16,3.61,2.11,7.61,3.16,12,3.16s8.41-1.05,12.06-3.16c3.66-2.11,6.56-5.16,8.71-9.16s3.23-8.67,3.23-14-1.08-9.98-3.23-13.94Z" fill="#3da1fb"/>
    <path d="M636.47,42.17v41.68c0,3.44.73,5.87,2.19,7.29s4,2.13,7.61,2.13h8.65v9.94h-10.58c-6.54,0-11.44-1.5-14.71-4.52-3.27-3.01-4.9-7.96-4.9-14.84v-41.68h-9.16v-9.68h9.16V14.68h11.74v17.81h18.45v9.68h-18.45,0Z" fill="#3da1fb"/>
    <path d="M683.44,42.17v41.68c0,3.44.73,5.87,2.19,7.29s4,2.13,7.61,2.13h8.64v9.94h-10.58c-6.54,0-11.44-1.5-14.71-4.52-3.27-3.01-4.9-7.96-4.9-14.84v-41.68h-9.16v-9.68h9.16V14.68h11.74v17.81h18.45v9.68h-18.45.01Z" fill="#3da1fb"/>
    <path d="M716.09,48.55c2.92-5.46,6.95-9.7,12.06-12.71,5.12-3.01,10.82-4.52,17.1-4.52s11.57,1.33,16.13,4c4.56,2.67,7.96,6.02,10.19,10.06v-12.9h11.87v70.71h-11.87v-13.16c-2.32,4.13-5.79,7.55-10.39,10.26-4.6,2.71-9.96,4.06-16.06,4.06s-11.96-1.55-17.03-4.64c-5.08-3.1-9.08-7.44-12-13.03-2.93-5.59-4.39-11.96-4.39-19.1s1.46-13.57,4.39-19.03h0ZM768.34,53.78c-2.15-3.96-5.05-6.99-8.71-9.1-3.66-2.11-7.68-3.16-12.06-3.16s-8.39,1.03-12,3.1c-3.61,2.06-6.5,5.08-8.64,9.03-2.15,3.96-3.23,8.6-3.23,13.94s1.08,10.13,3.23,14.13c2.15,4,5.03,7.06,8.64,9.16,3.61,2.11,7.61,3.16,12,3.16s8.41-1.05,12.06-3.16c3.66-2.11,6.56-5.16,8.71-9.16s3.23-8.67,3.23-14-1.08-9.98-3.23-13.94Z" fill="#3da1fb"/>
  </g>
  <g>
    <path d="M11.74,2.71v95.48H0V2.71h11.74Z" fill="#f3e7e9"/>
    <path d="M94.45,27.49v70.71h-11.74v-10.45c-2.24,3.61-5.35,6.43-9.35,8.45s-8.41,3.03-13.23,3.03c-5.51,0-10.45-1.14-14.84-3.42s-7.85-5.7-10.39-10.26c-2.54-4.56-3.81-10.11-3.81-16.64V27.49h11.61v39.87c0,6.97,1.76,12.32,5.29,16.06s8.34,5.61,14.45,5.61,11.23-1.94,14.84-5.81c3.61-3.87,5.42-9.5,5.42-16.9V27.48h11.75Z" fill="#f3e7e9"/>
    <path d="M114.32,43.55c2.92-5.46,6.99-9.7,12.19-12.71s11.16-4.52,17.87-4.52c8.69,0,15.85,2.11,21.48,6.32,5.63,4.22,9.36,10.06,11.16,17.55h-12.64c-1.21-4.3-3.55-7.7-7.03-10.19-3.48-2.49-7.81-3.74-12.97-3.74-6.71,0-12.13,2.3-16.26,6.9-4.13,4.6-6.19,11.12-6.19,19.55s2.06,15.1,6.19,19.74,9.55,6.97,16.26,6.97c5.16,0,9.46-1.2,12.9-3.61,3.44-2.41,5.81-5.85,7.1-10.32h12.64c-1.89,7.23-5.68,13.01-11.35,17.35-5.68,4.34-12.77,6.52-21.29,6.52-6.71,0-12.67-1.5-17.87-4.52-5.21-3.01-9.27-7.27-12.19-12.77s-4.39-11.96-4.39-19.35,1.46-13.7,4.39-19.16h0Z" fill="#f3e7e9"/>
    <path d="M193.03,13.68c-1.55-1.55-2.32-3.44-2.32-5.68s.77-4.13,2.32-5.68,3.44-2.32,5.68-2.32,3.98.77,5.48,2.32,2.26,3.44,2.26,5.68-.75,4.13-2.26,5.68-3.33,2.32-5.48,2.32-4.13-.77-5.68-2.32ZM204.39,27.49v70.71h-11.74V27.49h11.74Z" fill="#f3e7e9"/>
    <path d="M224.38,43.55c2.92-5.46,6.95-9.7,12.06-12.71,5.12-3.01,10.82-4.52,17.1-4.52s11.57,1.33,16.13,4c4.56,2.67,7.96,6.02,10.19,10.06v-12.9h11.87v70.71h-11.87v-13.16c-2.32,4.13-5.79,7.55-10.39,10.26s-9.96,4.06-16.06,4.06-11.96-1.55-17.03-4.65c-5.08-3.1-9.08-7.44-12-13.03-2.92-5.59-4.39-11.96-4.39-19.1s1.46-13.57,4.39-19.03h0ZM276.64,48.78c-2.15-3.96-5.05-6.99-8.71-9.1s-7.68-3.16-12.06-3.16-8.39,1.03-12,3.1c-3.61,2.06-6.5,5.08-8.64,9.03-2.15,3.96-3.23,8.6-3.23,13.94s1.07,10.13,3.23,14.13c2.15,4,5.03,7.05,8.64,9.16,3.61,2.11,7.61,3.16,12,3.16s8.41-1.05,12.06-3.16c3.66-2.11,6.56-5.16,8.71-9.16s3.23-8.67,3.23-14-1.08-9.98-3.23-13.94Z" fill="#f3e7e9"/>
    <path d="M320.38,88.52h34.71v9.68h-48.13v-9.68l34.32-51.48h-34.06v-9.55h47.61v9.55l-34.45,51.48Z" fill="#f3e7e9"/>
    <path d="M370.32,43.55c2.92-5.46,6.95-9.7,12.06-12.71,5.12-3.01,10.82-4.52,17.1-4.52s11.57,1.33,16.13,4c4.56,2.67,7.96,6.02,10.19,10.06v-12.9h11.87v70.71h-11.87v-13.16c-2.32,4.13-5.79,7.55-10.39,10.26s-9.96,4.06-16.06,4.06-11.96-1.55-17.03-4.65c-5.08-3.1-9.08-7.44-12-13.03s-4.39-11.96-4.39-19.1,1.46-13.57,4.39-19.03h0ZM422.57,48.78c-2.15-3.96-5.05-6.99-8.71-9.1s-7.68-3.16-12.06-3.16-8.39,1.03-12,3.1c-3.61,2.06-6.5,5.08-8.64,9.03-2.15,3.96-3.23,8.6-3.23,13.94s1.07,10.13,3.23,14.13c2.15,4,5.03,7.05,8.64,9.16,3.61,2.11,7.61,3.16,12,3.16s8.41-1.05,12.06-3.16c3.66-2.11,6.56-5.16,8.71-9.16s3.23-8.67,3.23-14-1.08-9.98-3.23-13.94Z" fill="#f3e7e9"/>
    <path d="M483.86,87.36l21.94-59.87h12.52l-27.74,70.71h-13.68l-27.74-70.71h12.64l22.06,59.87h0Z" fill="#f3e7e9"/>
    <path d="M529.93,43.55c2.92-5.46,6.95-9.7,12.06-12.71,5.12-3.01,10.82-4.52,17.1-4.52s11.57,1.33,16.13,4c4.56,2.67,7.96,6.02,10.19,10.06v-12.9h11.87v70.71h-11.87v-13.16c-2.32,4.13-5.79,7.55-10.39,10.26-4.6,2.71-9.96,4.06-16.06,4.06s-11.96-1.55-17.03-4.65c-5.08-3.1-9.08-7.44-12-13.03-2.93-5.59-4.39-11.96-4.39-19.1s1.46-13.57,4.39-19.03h0ZM582.18,48.78c-2.15-3.96-5.05-6.99-8.71-9.1-3.66-2.11-7.68-3.16-12.06-3.16s-8.39,1.03-12,3.1-6.5,5.08-8.65,9.03c-2.15,3.96-3.23,8.6-3.23,13.94s1.08,10.13,3.23,14.13c2.15,4,5.03,7.05,8.65,9.16,3.61,2.11,7.61,3.16,12,3.16s8.41-1.05,12.06-3.16c3.66-2.11,6.56-5.16,8.71-9.16s3.23-8.67,3.23-14-1.08-9.98-3.23-13.94Z" fill="#f3e7e9"/>
    <path d="M631.47,37.17v41.68c0,3.44.73,5.87,2.19,7.29s4,2.13,7.61,2.13h8.64v9.94h-10.58c-6.54,0-11.44-1.5-14.71-4.52-3.27-3.01-4.9-7.96-4.9-14.84v-41.68h-9.16v-9.68h9.16V9.68h11.74v17.81h18.45v9.68h-18.45.01Z" fill="#f3e7e9"/>
    <path d="M678.44,37.17v41.68c0,3.44.73,5.87,2.19,7.29s4,2.13,7.61,2.13h8.64v9.94h-10.58c-6.54,0-11.44-1.5-14.71-4.52-3.27-3.01-4.9-7.96-4.9-14.84v-41.68h-9.16v-9.68h9.16V9.68h11.74v17.81h18.45v9.68h-18.45.01Z" fill="#f3e7e9"/>
    <path d="M711.09,43.55c2.92-5.46,6.95-9.7,12.06-12.71,5.12-3.01,10.82-4.52,17.1-4.52s11.57,1.33,16.13,4c4.56,2.67,7.96,6.02,10.19,10.06v-12.9h11.87v70.71h-11.87v-13.16c-2.32,4.13-5.79,7.55-10.39,10.26-4.6,2.71-9.96,4.06-16.06,4.06s-11.96-1.55-17.03-4.65c-5.08-3.1-9.08-7.44-12-13.03-2.93-5.59-4.39-11.96-4.39-19.1s1.46-13.57,4.39-19.03h0ZM763.34,48.78c-2.15-3.96-5.05-6.99-8.71-9.1-3.66-2.11-7.68-3.16-12.06-3.16s-8.39,1.03-12,3.1c-3.61,2.06-6.5,5.08-8.64,9.03-2.15,3.96-3.23,8.6-3.23,13.94s1.08,10.13,3.23,14.13c2.15,4,5.03,7.05,8.64,9.16,3.61,2.11,7.61,3.16,12,3.16s8.41-1.05,12.06-3.16c3.66-2.11,6.56-5.16,8.71-9.16s3.23-8.67,3.23-14-1.08-9.98-3.23-13.94Z" fill="#f3e7e9"/>
  </g>
</svg>