<?xml version="1.0" encoding="utf-8"?>
<!-- Generator: Adobe Illustrator 25.2.1, SVG Export Plug-In . SVG Version: 6.00 Build 0)  -->
<svg version="1.1" id="Livello_1" xmlns="http://www.w3.org/2000/svg" xmlns:xlink="http://www.w3.org/1999/xlink" x="0px" y="0px"
	 viewBox="0 0 330.3 51.2" style="enable-background:new 0 0 330.3 51.2;" xml:space="preserve">
<style type="text/css">
	.st0{clip-path:url(#SVGID_2_);}
	.st1{opacity:0.15;clip-path:url(#SVGID_4_);}
	.st2{clip-path:url(#SVGID_6_);}
	.st3{clip-path:url(#SVGID_4_);fill:#293338;}
	.st4{clip-path:url(#SVGID_4_);fill:#81BFE2;}
	.st5{opacity:0.1;clip-path:url(#SVGID_4_);}
	.st6{clip-path:url(#SVGID_8_);}
	.st7{clip-path:url(#SVGID_2_);fill:#293338;}
</style>
<g>
	<defs>
		<rect id="SVGID_1_" width="330.3" height="51.2"/>
	</defs>
	<clipPath id="SVGID_2_">
		<use xlink:href="#SVGID_1_"  style="overflow:visible;"/>
	</clipPath>
	<g class="st0">
		<defs>
			<rect id="SVGID_3_" y="0" width="330.3" height="51.2"/>
		</defs>
		<clipPath id="SVGID_4_">
			<use xlink:href="#SVGID_3_"  style="overflow:visible;"/>
		</clipPath>
		<g class="st1">
			<g>
				<defs>
					<rect id="SVGID_5_" y="2.3" width="327.4" height="48.9"/>
				</defs>
				<clipPath id="SVGID_6_">
					<use xlink:href="#SVGID_5_"  style="overflow:visible;"/>
				</clipPath>
				<path class="st2" d="M0,51.2h327.4V2.3H0V51.2z M10.8,31.1c-2.8,0-5-2.2-5-5c0-2.8,2.2-5,5-5c2.8,0,5,2.2,5,5
					C15.8,28.9,13.6,31.1,10.8,31.1 M316.6,30.7c-2.5,0-4.5-2-4.5-4.5c0-2.5,2-4.5,4.5-4.5c2.5,0,4.5,2,4.5,4.5
					C321.2,28.6,319.1,30.7,316.6,30.7"/>
			</g>
		</g>
		<path class="st3" d="M2.3,0h328v49.6H2.3V0z M319.2,20.6c-2,0-3.6,1.6-3.6,3.6c0,2,1.6,3.6,3.6,3.6c2,0,3.6-1.6,3.6-3.6
			C322.8,22.2,321.2,20.6,319.2,20.6 M13.4,20.6c-2,0-3.6,1.6-3.6,3.6c0,2,1.6,3.6,3.6,3.6s3.6-1.6,3.6-3.6
			C17,22.2,15.4,20.6,13.4,20.6"/>
		<path class="st4" d="M2.6,49.3h327.4V0.3H2.6V49.3z M13.4,28.7c-2.5,0-4.5-2-4.5-4.5s2-4.5,4.5-4.5c2.5,0,4.5,2,4.5,4.5
			S16,28.7,13.4,28.7 M319.2,28.7c-2.5,0-4.5-2-4.5-4.5s2-4.5,4.5-4.5c2.5,0,4.5,2,4.5,4.5S321.7,28.7,319.2,28.7"/>
		<g class="st5">
			<g>
				<defs>
					<rect id="SVGID_7_" x="2.6" y="38.9" width="327.4" height="10.4"/>
				</defs>
				<clipPath id="SVGID_8_">
					<use xlink:href="#SVGID_7_"  style="overflow:visible;"/>
				</clipPath>
				<rect x="2.6" y="38.9" class="st6" width="327.4" height="10.4"/>
			</g>
		</g>
		<rect x="23.9" y="0.3" class="st3" width="0.9" height="11.3"/>
		<rect x="38" y="0.3" class="st3" width="0.9" height="9.6"/>
		<rect x="26.7" y="0.3" class="st3" width="0.9" height="7.5"/>
		<rect x="29.5" y="0.3" class="st3" width="0.9" height="7.5"/>
		<rect x="32.4" y="0.3" class="st3" width="0.9" height="7.5"/>
		<rect x="35.2" y="0.3" class="st3" width="0.9" height="7.5"/>
		<rect x="52.1" y="0.3" class="st3" width="0.9" height="11.3"/>
		<rect x="40.8" y="0.3" class="st3" width="0.9" height="7.5"/>
		<rect x="43.7" y="0.3" class="st3" width="0.9" height="7.5"/>
		<rect x="46.5" y="0.3" class="st3" width="0.9" height="7.5"/>
		<rect x="49.3" y="0.3" class="st3" width="0.9" height="7.5"/>
		<rect x="66.2" y="0.3" class="st3" width="0.9" height="9.6"/>
		<rect x="54.9" y="0.3" class="st3" width="0.9" height="7.5"/>
		<rect x="57.8" y="0.3" class="st3" width="0.9" height="7.5"/>
		<rect x="60.6" y="0.3" class="st3" width="0.9" height="7.5"/>
		<rect x="63.4" y="0.3" class="st3" width="0.9" height="7.5"/>
		<rect x="80.3" y="0.3" class="st3" width="0.9" height="11.3"/>
		<rect x="69.1" y="0.3" class="st3" width="0.9" height="7.5"/>
		<rect x="71.9" y="0.3" class="st3" width="0.9" height="7.5"/>
		<rect x="74.7" y="0.3" class="st3" width="0.9" height="7.5"/>
		<rect x="77.5" y="0.3" class="st3" width="0.9" height="7.5"/>
		<rect x="94.5" y="0.3" class="st3" width="0.9" height="9.6"/>
		<rect x="83.2" y="0.3" class="st3" width="0.9" height="7.5"/>
		<rect x="86" y="0.3" class="st3" width="0.9" height="7.5"/>
		<rect x="88.8" y="0.3" class="st3" width="0.9" height="7.5"/>
		<rect x="91.6" y="0.3" class="st3" width="0.9" height="7.5"/>
		<rect x="108.6" y="0.3" class="st3" width="0.9" height="11.3"/>
		<rect x="97.3" y="0.3" class="st3" width="0.9" height="7.5"/>
		<rect x="100.1" y="0.3" class="st3" width="0.9" height="7.5"/>
		<rect x="102.9" y="0.3" class="st3" width="0.9" height="7.5"/>
		<rect x="105.8" y="0.3" class="st3" width="0.9" height="7.5"/>
		<rect x="122.7" y="0.3" class="st3" width="0.9" height="9.6"/>
		<rect x="111.4" y="0.3" class="st3" width="0.9" height="7.5"/>
		<rect x="114.2" y="0.3" class="st3" width="0.9" height="7.5"/>
		<rect x="117" y="0.3" class="st3" width="0.9" height="7.5"/>
		<rect x="119.9" y="0.3" class="st3" width="0.9" height="7.5"/>
		<rect x="136.8" y="0.3" class="st3" width="0.9" height="11.3"/>
		<rect x="125.5" y="0.3" class="st3" width="0.9" height="7.5"/>
		<rect x="128.3" y="0.3" class="st3" width="0.9" height="7.5"/>
		<rect x="131.2" y="0.3" class="st3" width="0.9" height="7.5"/>
		<rect x="134" y="0.3" class="st3" width="0.9" height="7.5"/>
		<rect x="150.9" y="0.3" class="st3" width="0.9" height="9.6"/>
		<rect x="139.6" y="0.3" class="st3" width="0.9" height="7.5"/>
		<rect x="142.4" y="0.3" class="st3" width="0.9" height="7.5"/>
		<rect x="145.3" y="0.3" class="st3" width="0.9" height="7.5"/>
		<rect x="148.1" y="0.3" class="st3" width="0.9" height="7.5"/>
		<rect x="165" y="0.3" class="st3" width="0.9" height="11.3"/>
		<rect x="153.7" y="0.3" class="st3" width="0.9" height="7.5"/>
		<rect x="156.6" y="0.3" class="st3" width="0.9" height="7.5"/>
		<rect x="159.4" y="0.3" class="st3" width="0.9" height="7.5"/>
		<rect x="162.2" y="0.3" class="st3" width="0.9" height="7.5"/>
		<rect x="179.1" y="0.3" class="st3" width="0.9" height="9.6"/>
		<rect x="167.9" y="0.3" class="st3" width="0.9" height="7.5"/>
		<rect x="170.7" y="0.3" class="st3" width="0.9" height="7.5"/>
		<rect x="173.5" y="0.3" class="st3" width="0.9" height="7.5"/>
		<rect x="176.3" y="0.3" class="st3" width="0.9" height="7.5"/>
		<rect x="193.3" y="0.3" class="st3" width="0.9" height="11.3"/>
		<rect x="182" y="0.3" class="st3" width="0.9" height="7.5"/>
		<rect x="184.8" y="0.3" class="st3" width="0.9" height="7.5"/>
		<rect x="187.6" y="0.3" class="st3" width="0.9" height="7.5"/>
		<rect x="190.4" y="0.3" class="st3" width="0.9" height="7.5"/>
		<rect x="207.4" y="0.3" class="st3" width="0.9" height="9.6"/>
		<rect x="196.1" y="0.3" class="st3" width="0.9" height="7.5"/>
		<rect x="198.9" y="0.3" class="st3" width="0.9" height="7.5"/>
		<rect x="201.7" y="0.3" class="st3" width="0.9" height="7.5"/>
		<rect x="204.5" y="0.3" class="st3" width="0.9" height="7.5"/>
		<rect x="221.5" y="0.3" class="st3" width="0.9" height="11.3"/>
		<rect x="210.2" y="0.3" class="st3" width="0.9" height="7.5"/>
		<rect x="213" y="0.3" class="st3" width="0.9" height="7.5"/>
		<rect x="215.8" y="0.3" class="st3" width="0.9" height="7.5"/>
		<rect x="218.7" y="0.3" class="st3" width="0.9" height="7.5"/>
		<rect x="235.6" y="0.3" class="st3" width="0.9" height="9.6"/>
		<rect x="224.3" y="0.3" class="st3" width="0.9" height="7.5"/>
		<rect x="227.1" y="0.3" class="st3" width="0.9" height="7.5"/>
		<rect x="230" y="0.3" class="st3" width="0.9" height="7.5"/>
		<rect x="232.8" y="0.3" class="st3" width="0.9" height="7.5"/>
		<rect x="249.7" y="0.3" class="st3" width="0.9" height="11.3"/>
		<rect x="238.4" y="0.3" class="st3" width="0.9" height="7.5"/>
		<rect x="241.2" y="0.3" class="st3" width="0.9" height="7.5"/>
		<rect x="244.1" y="0.3" class="st3" width="0.9" height="7.5"/>
		<rect x="246.9" y="0.3" class="st3" width="0.9" height="7.5"/>
		<rect x="263.8" y="0.3" class="st3" width="0.9" height="9.6"/>
		<rect x="252.5" y="0.3" class="st3" width="0.9" height="7.5"/>
		<rect x="255.4" y="0.3" class="st3" width="0.9" height="7.5"/>
		<rect x="258.2" y="0.3" class="st3" width="0.9" height="7.5"/>
		<rect x="261" y="0.3" class="st3" width="0.9" height="7.5"/>
		<rect x="277.9" y="0.3" class="st3" width="0.9" height="11.3"/>
		<rect x="266.6" y="0.3" class="st3" width="0.9" height="7.5"/>
		<rect x="269.5" y="0.3" class="st3" width="0.9" height="7.5"/>
		<rect x="272.3" y="0.3" class="st3" width="0.9" height="7.5"/>
		<rect x="275.1" y="0.3" class="st3" width="0.9" height="7.5"/>
		<rect x="292" y="0.3" class="st3" width="0.9" height="9.6"/>
		<rect x="280.8" y="0.3" class="st3" width="0.9" height="7.5"/>
		<rect x="283.6" y="0.3" class="st3" width="0.9" height="7.5"/>
		<rect x="286.4" y="0.3" class="st3" width="0.9" height="7.5"/>
		<rect x="289.2" y="0.3" class="st3" width="0.9" height="7.5"/>
		<rect x="306.2" y="0.3" class="st3" width="0.9" height="11.3"/>
		<rect x="294.9" y="0.3" class="st3" width="0.9" height="7.5"/>
		<rect x="297.7" y="0.3" class="st3" width="0.9" height="7.5"/>
		<rect x="300.5" y="0.3" class="st3" width="0.9" height="7.5"/>
		<rect x="303.3" y="0.3" class="st3" width="0.9" height="7.5"/>
	</g>
	<polygon class="st7" points="52.5,18.8 53.6,18.8 53.6,14 52.7,14 51.4,14.6 51.6,15.4 52.5,15 52.5,15 	"/>
	<path class="st7" d="M24.3,18c-0.4,0-0.7-0.5-0.7-1.6c0-1.1,0.3-1.6,0.7-1.6c0.4,0,0.7,0.6,0.7,1.6C25,17.4,24.7,18,24.3,18
		L24.3,18z M24.3,18.8c1.2,0,1.8-1,1.8-2.5c0-1.3-0.5-2.4-1.8-2.4c-1.2,0-1.8,1.1-1.8,2.5C22.5,17.7,23,18.8,24.3,18.8L24.3,18.8z"
		/>
	<path class="st7" d="M82.6,18.8v-0.9h-1.8v0l0.4-0.4c0.7-0.6,1.3-1.3,1.3-2.1c0-0.9-0.6-1.5-1.7-1.5c-0.6,0-1.2,0.2-1.6,0.5
		l0.3,0.8c0.2-0.2,0.6-0.4,1-0.4c0.6,0,0.8,0.3,0.8,0.7c0,0.6-0.5,1.1-1.6,2l-0.6,0.6v0.7H82.6z"/>
	<path class="st7" d="M107.5,18.5c0.3,0.2,0.8,0.3,1.4,0.3c1.2,0,2-0.6,2-1.5c0-0.6-0.5-1.1-1-1.2v0c0.6-0.2,0.9-0.6,0.9-1.1
		c0-0.7-0.6-1.2-1.6-1.2c-0.6,0-1.2,0.2-1.5,0.4l0.2,0.8c0.2-0.1,0.6-0.3,1-0.3c0.5,0,0.7,0.2,0.7,0.5c0,0.4-0.5,0.6-0.8,0.6h-0.4
		v0.8h0.5c0.5,0,1,0.2,1,0.7c0,0.4-0.3,0.6-0.9,0.6c-0.5,0-0.9-0.2-1.1-0.3L107.5,18.5z"/>
	<path class="st7" d="M136.2,16.8L136.2,16.8l0.6-1.1c0.2-0.3,0.3-0.6,0.4-0.9h0c0,0.3,0,0.6,0,0.9v1.1H136.2z M138.3,18.8v-1.1h0.6
		v-0.8h-0.6V14H137l-1.8,2.9v0.7h2.1v1.1H138.3z"/>
	<path class="st7" d="M166.9,14h-2.6l-0.3,2.5c0.2,0,0.4,0,0.6,0c1,0,1.3,0.3,1.3,0.8c0,0.5-0.5,0.7-1,0.7c-0.4,0-0.9-0.1-1.1-0.2
		l-0.2,0.8c0.3,0.1,0.7,0.3,1.3,0.3c1.3,0,2-0.8,2-1.7c0-0.6-0.2-1-0.6-1.2c-0.3-0.2-0.8-0.3-1.3-0.3c-0.1,0-0.2,0-0.3,0l0.1-0.7
		h1.9V14z"/>
	<path class="st7" d="M193.8,18c-0.5,0-0.7-0.5-0.8-1c0-0.1,0-0.2,0.1-0.3c0.1-0.2,0.4-0.4,0.7-0.4c0.5,0,0.7,0.4,0.7,0.8
		C194.4,17.6,194.2,18,193.8,18L193.8,18z M195,13.9c-0.1,0-0.2,0-0.4,0c-0.7,0-1.4,0.3-1.8,0.7c-0.5,0.5-0.9,1.2-0.9,2.1
		c0,1.1,0.6,2.1,1.9,2.1c1,0,1.8-0.8,1.8-1.7c0-1-0.7-1.6-1.5-1.6c-0.4,0-0.8,0.1-1,0.4h0c0.1-0.6,0.6-1.1,1.6-1.1
		c0.2,0,0.3,0,0.4,0V13.9z"/>
	<polygon class="st7" points="220.4,14 220.4,14.9 222.6,14.9 222.6,14.9 220.6,18.8 221.8,18.8 223.8,14.7 223.8,14 	"/>
	<path class="st7" d="M250.2,14.7c0.4,0,0.6,0.3,0.6,0.6c0,0.3-0.2,0.5-0.5,0.6c-0.4-0.1-0.7-0.3-0.7-0.6
		C249.6,14.9,249.8,14.7,250.2,14.7L250.2,14.7z M250.2,18.1c-0.4,0-0.7-0.3-0.7-0.7c0-0.3,0.2-0.6,0.6-0.7c0.4,0.1,0.7,0.4,0.7,0.8
		C250.8,17.8,250.6,18.1,250.2,18.1L250.2,18.1z M250.2,13.9c-0.9,0-1.7,0.5-1.7,1.3c0,0.4,0.2,0.8,0.7,1.1v0
		c-0.5,0.2-0.9,0.6-0.9,1.2c0,0.6,0.6,1.3,1.8,1.3c1.1,0,1.8-0.6,1.8-1.5c0-0.6-0.4-1-0.9-1.2v0c0.5-0.2,0.7-0.6,0.7-1.1
		C251.8,14.5,251.3,13.9,250.2,13.9L250.2,13.9z"/>
	<path class="st7" d="M278.4,14.7c0.5,0,0.7,0.5,0.7,1c0,0.1,0,0.2-0.1,0.3c-0.1,0.2-0.3,0.3-0.6,0.3c-0.4,0-0.7-0.4-0.7-0.8
		C277.7,15,278,14.7,278.4,14.7L278.4,14.7z M277,18.8c0.1,0,0.3,0,0.5,0c0.7,0,1.4-0.2,1.8-0.7c0.5-0.5,0.8-1.2,0.8-2.2
		c0-1.1-0.6-2.1-1.8-2.1c-1.1,0-1.8,0.8-1.8,1.7c0,0.9,0.7,1.5,1.5,1.5c0.4,0,0.7-0.1,1-0.3l0,0c-0.1,0.4-0.3,0.7-0.6,0.9
		c-0.3,0.2-0.6,0.3-0.9,0.3c-0.2,0-0.3,0-0.5,0V18.8z"/>
	<polygon class="st7" points="304.5,18.8 305.6,18.8 305.6,14 304.6,14 303.4,14.6 303.6,15.4 304.5,15 304.5,15 	"/>
	<path class="st7" d="M308.9,18c-0.4,0-0.7-0.5-0.7-1.6c0-1.1,0.3-1.6,0.7-1.6c0.4,0,0.7,0.6,0.7,1.6C309.5,17.4,309.3,18,308.9,18
		L308.9,18z M308.9,18.8c1.2,0,1.8-1,1.8-2.5c0-1.3-0.5-2.4-1.8-2.4c-1.2,0-1.8,1.1-1.8,2.5C307.1,17.7,307.6,18.8,308.9,18.8
		L308.9,18.8z"/>
</g>
</svg>
