<?xml version="1.0" encoding="utf-8"?>
<!-- Generator: Adobe Illustrator 25.2.1, SVG Export Plug-In . SVG Version: 6.00 Build 0)  -->
<svg version="1.1" xmlns="http://www.w3.org/2000/svg" xmlns:xlink="http://www.w3.org/1999/xlink" x="0px" y="0px"
	 viewBox="0 0 180 100" style="enable-background:new 0 0 180 100;" xml:space="preserve">
<style type="text/css">
	.st0{opacity:0.1;}
	.st1{fill:#020202;}
	.st2{fill:#D32A2A;}
	.st3{fill:#DDC93A;}
	.st4{fill:#3F4450;}
	.st5{fill:#FFEA32;}
	.st6{fill:#FFE0BC;}
	.st7{fill:#FFFFFF;}
	.st8{fill:#3A3F4A;}
	.st9{fill:#F1F1F1;}
</style>
<g id="Guides_For_Artboard">
</g>
<g id="Livello_3">
</g>
<g id="Illustrator">
	<g>
		<g class="st0">
			<polygon class="st1" points="725.3,71.1 780.1,52.6 725.3,34.1 639.8,5.2 163,5.3 142,5.3 64.4,5.3 64.4,34.2 64.4,100 142,100 
				163,100 639.8,99.9 			"/>
			<path class="st1" d="M47.3,100h19.3c26.1,0,47.3-21.2,47.3-47.3v0c0-26.1-21.2-47.3-47.3-47.3H47.3C21.2,5.3,0,26.5,0,52.7v0
				C0,78.8,21.2,100,47.3,100z"/>
		</g>
		<path class="st2" d="M22.7,94.8h83.5c8.4,0,15.3-6.8,15.3-15.3V15.4c0-8.4-6.8-15.3-15.3-15.3l-83.5,0c-8.4,0-15.3,6.8-15.3,15.3
			v64.2C7.4,87.9,14.3,94.8,22.7,94.8z"/>
		<g>
			<g>
				<rect x="172.2" y="0" class="st3" width="476.8" height="31.1"/>
				<rect x="172.2" y="31.1" class="st4" width="476.8" height="32.5"/>
				<rect x="172.2" y="63.6" class="st5" width="476.8" height="31.1"/>
				<g>
					<path class="st4" d="M734.5,65.8l54.8-18.5l-54.8-18.5C730.8,40.9,730.8,53.8,734.5,65.8z"/>
					<path class="st6" d="M734.5,28.8L649,0v94.7l85.5-28.8C730.8,53.8,730.8,40.9,734.5,28.8z"/>
				</g>
				<rect x="128" y="0.1" class="st7" width="44.2" height="94.7"/>
				<rect x="73.7" y="0.1" class="st4" width="54.3" height="94.7"/>
				<polygon class="st8" points="73.7,0.1 128,0.1 128,28.9 73.7,29 				"/>
				<polygon class="st9" points="172.2,0.1 128,0.1 128,28.9 172.2,28.9 				"/>
			</g>
		</g>
	</g>
</g>
</svg>
