<?xml version="1.0" encoding="UTF-8"?>
<svg id="Livello_1" xmlns="http://www.w3.org/2000/svg" version="1.1" xmlns:xlink="http://www.w3.org/1999/xlink" viewBox="0 0 216 163.81">
  <!-- Generator: Adobe Illustrator 29.2.0, SVG Export Plug-In . SVG Version: 2.1.0 Build 108)  -->
  <defs>
    <linearGradient id="Sfumatura_senza_nome" data-name="Sfumatura senza nome" x1="11.36" y1="113.33" x2="214.57" y2="40.11" gradientTransform="translate(0 163.7) scale(1 -1)" gradientUnits="userSpaceOnUse">
      <stop offset=".06" stop-color="#008be5"/>
      <stop offset="1" stop-color="#c37385"/>
    </linearGradient>
  </defs>
  <path d="M150.83,62.02v12.44H0V.15h12.36v61.87h138.47ZM54.95,144.15l8.79,8.63c-3.4,3.4-7.46,6.14-11.86,8.05-4.48,1.99-9.29,2.9-14.43,2.9s-9.95-1-14.35-2.99c-4.56-1.91-8.46-4.56-11.94-7.96-3.32-3.4-6.05-7.3-7.96-11.69-1.99-4.56-2.99-9.29-2.99-14.43v-.08c0-5.14,1-9.87,2.99-14.43,1.91-4.4,4.64-8.38,7.96-11.69,3.48-3.4,7.38-6.05,11.94-7.96,4.4-1.99,9.29-2.99,14.35-2.99s9.95.91,14.43,2.9c4.4,1.91,8.46,4.64,11.86,8.05l-8.79,8.63c-4.98-4.81-10.78-7.13-17.5-7.13-3.4,0-6.72.66-9.62,1.82-3.07,1.33-5.72,3.07-7.96,5.39-2.16,2.24-3.98,4.89-5.22,7.88-1.33,2.99-1.99,6.22-1.99,9.54s.66,6.55,1.99,9.62c1.24,2.99,3.07,5.64,5.22,7.8,2.32,2.32,4.89,4.23,7.96,5.39,2.9,1.24,6.22,1.91,9.62,1.91,6.72,0,12.52-2.32,17.5-7.13v-.03ZM216,101.93H67.77v-12.44h148.22v12.44h.01ZM216,132.87H67.77v-12.36h148.22v12.36h.01ZM216,151.37v12.44H67.77v-12.44h148.23ZM206.82,65.28c-6.05,6.05-13.44,9.04-21.9,9.04s-15.84-2.99-21.81-9.04c-6.05-5.97-9.04-13.44-9.04-21.9V0h12.36v43.38c0,5.14,1.74,9.46,5.31,13.02,3.57,3.73,8.05,5.47,13.19,5.47s9.46-1.83,13.1-5.47c3.57-3.65,5.56-7.96,5.56-13.02h12.36c0,8.54-2.99,15.92-9.12,21.9h-.01Z" fill="url(#Sfumatura_senza_nome)"/>
</svg>