<?xml version="1.0" encoding="utf-8"?>
<!-- Generator: Adobe Illustrator 25.2.1, SVG Export Plug-In . SVG Version: 6.00 Build 0)  -->
<svg version="1.1" xmlns="http://www.w3.org/2000/svg" xmlns:xlink="http://www.w3.org/1999/xlink" x="0px" y="0px"
	 viewBox="0 0 160 100" style="enable-background:new 0 0 160 100;" xml:space="preserve">
<style type="text/css">
	.st0{opacity:0.1;}
	.st1{fill:#020202;}
	.st2{fill:#D32A2A;}
	.st3{fill:#DDC93A;}
	.st4{fill:#3F4450;}
	.st5{fill:#FFEA32;}
	.st6{fill:#FFE0BC;}
	.st7{fill:#FFFFFF;}
	.st8{fill:#3A3F4A;}
	.st9{fill:#F1F1F1;}
</style>
<g id="Guides_For_Artboard">
</g>
<g id="Livello_3">
</g>
<g id="Illustrator">
	<g>
		<g class="st0">
			<polygon class="st1" points="95.9,71.1 150.7,52.6 95.9,34.1 10.4,5.2 -466.4,5.3 -487.3,5.3 -564.9,5.3 -564.9,34.2 -564.9,100 
				-487.3,100 -466.4,100 10.4,99.9 			"/>
			<path class="st1" d="M-582,100h19.3c26.1,0,47.3-21.2,47.3-47.3v0c0-26.1-21.2-47.3-47.3-47.3H-582c-26.1,0-47.3,21.2-47.3,47.3
				v0C-629.3,78.8-608.2,100-582,100z"/>
		</g>
		<path class="st2" d="M-606.7,94.8h83.5c8.4,0,15.3-6.8,15.3-15.3V15.4c0-8.4-6.8-15.3-15.3-15.3l-83.5,0
			c-8.4,0-15.3,6.8-15.3,15.3v64.2C-621.9,87.9-615.1,94.8-606.7,94.8z"/>
		<g>
			<g>
				<rect x="-457.1" y="0" class="st3" width="476.8" height="31.1"/>
				<rect x="-457.1" y="31.1" class="st4" width="476.8" height="32.5"/>
				<rect x="-457.1" y="63.6" class="st5" width="476.8" height="31.1"/>
				<g>
					<path class="st4" d="M105.2,65.8L160,47.3l-54.8-18.5C101.4,40.9,101.4,53.8,105.2,65.8z"/>
					<path class="st6" d="M105.2,28.8L19.7,0v94.7l85.5-28.8C101.4,53.8,101.4,40.9,105.2,28.8z"/>
				</g>
				<rect x="-501.3" y="0.1" class="st7" width="44.2" height="94.7"/>
				<rect x="-555.7" y="0.1" class="st4" width="54.3" height="94.7"/>
				<polygon class="st8" points="-555.7,0.1 -501.3,0.1 -501.3,28.9 -555.7,29 				"/>
				<polygon class="st9" points="-457.1,0.1 -501.3,0.1 -501.3,28.9 -457.1,28.9 				"/>
			</g>
		</g>
	</g>
</g>
</svg>
